# xmcd
# 
# Track frame offsets:
#     150
#     2845
#     7720
#     27497
#     36625
#     55337
#     74150
#     89667
#     102257
#     123097
#     136492
#     144620
#     158005
#     174590
#     193302
#     193812
#     198960
#     206222
#     210287
#     229637
# 
# Disc length: 3406
# 
# Revision: 3
# Processed by: cddbd v1.5.2PL0 Copyright (c) Steve Scherf et al.
# Submitted via: fre:ac v1.0.31
# 
DISCID=280d4c14
DTITLE=Various Artist - サマーカーニバル '92 烈火 サウンドトラック
DYEAR=2005
DGENRE=Game
TTITLE0=塩田信之 - AD 2302
TTITLE1=塩田信之 - RECCA
TTITLE2=塩田信之 - JETTER
TTITLE3=塩田信之 - CRISIS
TTITLE4=塩田信之 - M.O.M
TTITLE5=塩田信之 - HYDE
TTITLE6=塩田信之 - ELM-39
TTITLE7=塩田信之 - D.A.D
TTITLE8=塩田信之 - TERA
TTITLE9=塩田信之 - DEEPSPACE
TTITLE10=塩田信之 - BOSTUNE
TTITLE11=塩田信之 - DEATH-TROY
TTITLE12=塩田信之 - HIENER
TTITLE13=塩田信之 - GELGOOG
TTITLE14=塩田信之 - OVER
TTITLE15=塩田信之 - LOVIN' YOU
TTITLE16=塩田信之 - DREAMIN' YOU
TTITLE17=塩田信之 - THROBBIN' YOU
TTITLE18=塩田信之 - HYDE - JEKYLL MIX
TTITLE19=並木学 - JSR $2302
EXTD=YEAR: 2005
EXTT0=
EXTT1=
EXTT2=
EXTT3=
EXTT4=
EXTT5=
EXTT6=
EXTT7=
EXTT8=
EXTT9=
EXTT10=
EXTT11=
EXTT12=
EXTT13=
EXTT14=
EXTT15=
EXTT16=
EXTT17=
EXTT18=
EXTT19=
PLAYORDER=
